<?xml version="1.0" encoding="utf-8"?>
<!-- Generator: Adobe Illustrator 22.0.1, SVG Export Plug-In . SVG Version: 6.00 Build 0)  -->
<svg version="1.1" id="Layer_1" xmlns="http://www.w3.org/2000/svg" xmlns:xlink="http://www.w3.org/1999/xlink" x="0px" y="0px"
	 viewBox="0 0 24 24" style="enable-background:new 0 0 24 24;" xml:space="preserve">
<style type="text/css">
	.st0{fill:#FF7AEA;}
	.st1{fill:#FDB3FF;}
	.st2{fill:#FF8A9A;}
	.st3{fill:#FFB4C3;}
</style>
<g>
	<g>
		<path class="st0" d="M7.6,8.5l0.3-5.2C8,2.2,9,1.4,10.1,1.5l0,0c1.1,0.1,2,1,1.9,2.1l-0.3,5.2c-0.1,1.1-2.2,10.4-3.3,10.3l0,0
			C7.3,19.1,7.5,9.6,7.6,8.5z"/>
		<path class="st1" d="M7.1,8.5l0.3-5.2c0.1-1.1,1.1-1.9,2.2-1.8l0,0c1.1,0.1,2,1,1.9,2.1l-0.3,5.2c-0.1,1.1-1.8,10.7-2.9,10.6h0
			C7.2,19.4,7,9.6,7.1,8.5z"/>
	</g>
	<g>
		<path class="st0" d="M18.3,9.3l0.3-5.2c0.1-1.1,1.1-1.9,2.2-1.8l0,0c1.1,0.1,2,1,1.9,2.1l-0.3,5.2c-0.1,1.1-2.2,10.7-3.3,10.6l0,0
			C17.9,20.1,18.2,10.4,18.3,9.3z"/>
		<path class="st1" d="M17.8,9.3l0.3-5.2c0.1-1.1,1.1-1.9,2.2-1.8l0,0c1.1,0.1,2,1,1.9,2.1l-0.3,5.2c-0.1,1.1-1.8,10.7-2.9,10.6h0
			C17.9,20.2,17.7,10.4,17.8,9.3z"/>
	</g>
	<g>
		<path class="st2" d="M16.5,15.6l-0.3,5.2c-0.1,1.1-1.1,1.9-2.2,1.8h0c-1.1-0.1-2-1-1.9-2.1l0.3-5.2c0.1-1.1,1.3-10.6,2.4-10.5l0,0
			C16,4.9,16.6,14.5,16.5,15.6z"/>
		<path class="st3" d="M16,15.6l-0.3,5.2c-0.1,1.1-1.1,1.9-2.2,1.8h0c-1.1-0.1-2-1-1.9-2.1l0.3-5.2c0.1-1.1,1.8-10.7,2.9-10.6l0,0
			C15.9,4.7,16.1,14.5,16,15.6z"/>
	</g>
	<g>
		<path class="st0" d="M6.2,15.1l-0.3,5.2c-0.1,1.1-1.1,1.9-2.2,1.8h0c-1.1-0.1-2-1-1.9-2.1l0.3-5.2C2.2,13.7,3.4,4.3,4.5,4.3l0,0
			C5.7,4.4,6.3,14,6.2,15.1z"/>
		<path class="st1" d="M5.7,15.1l-0.3,5.2c-0.1,1.1-1.1,1.9-2.2,1.8h0c-1.1-0.1-2-1-1.9-2.1l0.3-5.2C1.7,13.7,3.4,4.1,4.5,4.2h0
			C5.6,4.3,5.8,14,5.7,15.1z"/>
	</g>
</g>
</svg>
